<?xml version="1.0" encoding="UTF-8" standalone="no"?>
<svg
   xmlns:dc="http://purl.org/dc/elements/1.1/"
   xmlns:cc="http://creativecommons.org/ns#"
   xmlns:rdf="http://www.w3.org/1999/02/22-rdf-syntax-ns#"
   xmlns:svg="http://www.w3.org/2000/svg"
   xmlns="http://www.w3.org/2000/svg"
   xmlns:sodipodi="http://sodipodi.sourceforge.net/DTD/sodipodi-0.dtd"
   xmlns:inkscape="http://www.inkscape.org/namespaces/inkscape"
   enable-background="new 0 0 24 24"
   id="Layer_1"
   version="1.1"
   viewBox="0 0 22 22"
   xml:space="preserve"
   inkscape:version="0.91 r13725"
   sodipodi:docname="linux-ico.svg"
   width="22"
   height="22"><metadata
     id="metadata70"><rdf:RDF><cc:Work
         rdf:about=""><dc:format>image/svg+xml</dc:format><dc:type
           rdf:resource="http://purl.org/dc/dcmitype/StillImage" /><dc:title></dc:title></cc:Work></rdf:RDF></metadata><defs
     id="defs68"><linearGradient
       y2="13.591293"
       y1="6.8097382"
       x2="17.165054"
       x1="10.383499"
       id="SVGID_1_"
       gradientUnits="userSpaceOnUse"><stop
         id="stop3376"
         style="stop-color:#000000;stop-opacity:0.1"
         offset="0" /><stop
         id="stop3378"
         style="stop-color:#000000;stop-opacity:0"
         offset="1" /></linearGradient><linearGradient
       y2="21.117302"
       y1="17.220039"
       x2="21.758766"
       x1="17.861504"
       id="SVGID_2_"
       gradientUnits="userSpaceOnUse"><stop
         id="stop3395"
         style="stop-color:#000000;stop-opacity:0.1"
         offset="0" /><stop
         id="stop3397"
         style="stop-color:#000000;stop-opacity:0"
         offset="1" /></linearGradient><linearGradient
       y2="18.37886"
       y1="10.059656"
       x2="23.085646"
       x1="5.2450533"
       id="SVGID_3_"
       gradientUnits="userSpaceOnUse"><stop
         id="stop3402"
         style="stop-color:#FFFFFF;stop-opacity:0.2"
         offset="0" /><stop
         id="stop3404"
         style="stop-color:#FFFFFF;stop-opacity:0"
         offset="1" /></linearGradient><linearGradient
       y2="13.591293"
       y1="6.8097382"
       x2="17.165054"
       x1="10.383499"
       id="SVGID_1_-3"
       gradientUnits="userSpaceOnUse"><stop
         id="stop3376-6"
         style="stop-color:#000000;stop-opacity:0.1"
         offset="0" /><stop
         id="stop3378-7"
         style="stop-color:#000000;stop-opacity:0"
         offset="1" /></linearGradient><linearGradient
       y2="21.117302"
       y1="17.220039"
       x2="21.758766"
       x1="17.861504"
       id="SVGID_2_-5"
       gradientUnits="userSpaceOnUse"><stop
         id="stop3395-3"
         style="stop-color:#000000;stop-opacity:0.1"
         offset="0" /><stop
         id="stop3397-5"
         style="stop-color:#000000;stop-opacity:0"
         offset="1" /></linearGradient><linearGradient
       y2="18.37886"
       y1="10.059656"
       x2="23.085646"
       x1="5.2450533"
       id="SVGID_3_-6"
       gradientUnits="userSpaceOnUse"><stop
         id="stop3402-2"
         style="stop-color:#FFFFFF;stop-opacity:0.2"
         offset="0" /><stop
         id="stop3404-9"
         style="stop-color:#FFFFFF;stop-opacity:0"
         offset="1" /></linearGradient></defs><sodipodi:namedview
     pagecolor="#ffffff"
     bordercolor="#666666"
     borderopacity="1"
     objecttolerance="10"
     gridtolerance="10"
     guidetolerance="10"
     inkscape:pageopacity="0"
     inkscape:pageshadow="2"
     inkscape:window-width="1366"
     inkscape:window-height="710"
     id="namedview66"
     showgrid="false"
     fit-margin-top="0"
     fit-margin-left="0"
     fit-margin-right="0"
     fit-margin-bottom="0"
     inkscape:zoom="20.972656"
     inkscape:cx="11"
     inkscape:cy="9.0927547"
     inkscape:window-x="0"
     inkscape:window-y="0"
     inkscape:window-maximized="1"
     inkscape:current-layer="g3444" /><g
     id="g36"
     transform="translate(-1,-1)" /><g
     id="g38"
     transform="translate(-1,-1)" /><g
     id="g40"
     transform="translate(-1,-1)" /><g
     id="g42"
     transform="translate(-1,-1)" /><g
     id="g44"
     transform="translate(-1,-1)" /><g
     id="g46"
     transform="translate(-1,-1)" /><g
     id="g48"
     transform="translate(-1,-1)" /><g
     id="g50"
     transform="translate(-1,-1)" /><g
     id="g52"
     transform="translate(-1,-1)" /><g
     id="g54"
     transform="translate(-1,-1)" /><g
     id="g56"
     transform="translate(-1,-1)" /><g
     id="g58"
     transform="translate(-1,-1)" /><g
     id="g60"
     transform="translate(-1,-1)" /><g
     id="g62"
     transform="translate(-1,-1)" /><g
     id="g64"
     transform="translate(-1,-1)" /><g
     id="g3444"
     transform="translate(-1.4147887,0.08232445)"><g
       id="g3408" /><g
       id="g3410" /><g
       id="g3412" /><g
       id="g3414" /><g
       id="g3416" /><g
       id="g3418" /><g
       id="g3420" /><g
       id="g3422" /><g
       id="g3424" /><g
       id="g3426" /><g
       id="g3428" /><g
       id="g3430" /><g
       id="g3432" /><g
       id="g3434" /><g
       id="g3436" /><g
       id="g3337"
       transform="matrix(0.91417396,0,0,0.91417396,1.4590427,-0.01907244)"><path
         id="path3339"
         d="M 19.681152,18.033691 C 19.899414,17.56543 20,16.90918 20,16 20,12.753418 18.504394,10.880371 17.302734,9.375 16.575195,8.4633789 16,7.7431641 16,7 l 9.77e-4,-0.2329102 c 0.0078,-1.3803711 0.02393,-4.253418 -1.501953,-5.7880859 C 13.853027,0.3295898 13.012207,0 12,0 9.8994141,0 8.5,1.0205078 8.5,6 8.5,7.3706055 7.9233398,8.4931641 7.3129883,9.6816406 7.0454102,10.202637 6.7685547,10.741699 6.5366211,11.311523 6.074707,12.447266 5,15.227051 5,16.5 c 0,0.08105 0.019531,0.160644 0.057129,0.232422 l 3.5390625,6.748535 c 0.076172,0.14502 0.2211914,0.239746 0.3837891,0.260254 0.02002,0.0024 0.040039,0.0039 0.060059,0.0039 0.1420898,0 0.28125,-0.0625 0.3769531,-0.169433 C 9.6391602,23.328125 11.111816,23 12,23 l 3.39209,0 c 0.130371,0 0.255371,-0.05078 0.348633,-0.141602 l 4.10791,-4 c 0.198242,-0.192871 0.202148,-0.509277 0.0098,-0.707031 -0.05176,-0.05322 -0.112304,-0.09229 -0.177246,-0.117676 z"
         inkscape:connector-curvature="0"
         style="fill:#1a1a1a" /><path
         id="path3341"
         d="M 7.3129883,9.9316406 C 7.9233398,8.7431641 8.5,7.6206055 8.5,6.25 c 0,-4.9794922 1.3994141,-6 3.5,-6 1.012207,0 1.853027,0.3295898 2.499023,0.9790039 1.333741,1.3413696 1.489319,3.704895 1.502137,5.2008057 C 16.002014,4.9626465 15.914368,2.4025269 14.499023,0.9790039 13.853027,0.3295898 13.012207,0 12,0 9.8994141,0 8.5,1.0205078 8.5,6 8.5,7.3706055 7.9233398,8.4931641 7.3129883,9.6816406 7.0454102,10.202637 6.7685547,10.741699 6.5366211,11.311523 6.074707,12.447266 5,15.227051 5,16.5 5,16.52277 5.013001,16.54285 5.016052,16.56525 5.100769,15.229129 6.0944211,12.648868 6.5366208,11.561526 6.7685545,10.991702 7.04541,10.45264 7.3129881,9.9316436 Z"
         inkscape:connector-curvature="0"
         style="opacity:0.2;fill:#ffffff" /><path
         id="path3343"
         d="m 19.858398,18.401367 c 0.06201,0.06378 0.09613,0.141052 0.117432,0.221375 0.04169,-0.163208 0.0085,-0.341919 -0.117432,-0.471375 -0.03027,-0.03113 -0.06824,-0.0473 -0.103576,-0.06879 -0.02441,0.06726 -0.04535,0.140319 -0.07367,0.20111 0.06494,0.02539 0.125489,0.06445 0.177246,0.117676 z"
         inkscape:connector-curvature="0"
         style="fill:#0099d8" /><path
         id="path3345"
         d="m 16,7.25 c 0,0.7431641 0.575195,1.4633789 1.302734,2.375 1.190491,1.491394 2.664978,3.3479 2.692322,6.539307 C 19.995911,16.107605 20,16.058777 20,16 20,12.753418 18.504394,10.880371 17.302734,9.375 16.576965,8.4655762 16.003784,7.746582 16.000977,7.0053711 c 0,0.00348 0,0.00824 0,0.011719 L 16,7.25 Z"
         inkscape:connector-curvature="0"
         style="opacity:0.2;fill:#ffffff" /><path
         id="path3347"
         d="m 16,7 c 0,0.00183 9.77e-4,0.00354 9.77e-4,0.00537 9.76e-4,-0.1713257 0.002,-0.3643188 1.83e-4,-0.5755615 -6.1e-5,0.114563 3.66e-4,0.2373047 -1.83e-4,0.3372803 L 16,7 Z"
         inkscape:connector-curvature="0"
         style="fill:#0099d8" /><g
         id="g3349"><path
           id="path3351"
           d="m 16.129412,16.811764 c -0.01196,-2.434631 -0.342778,-5.173326 -2.266667,-9.1058809 -0.952087,0.6437373 -2.699843,1.1529412 -2.909804,1.1529412 -0.37854,0 -1.2050161,-0.2702007 -1.8122549,-0.8062725 C 8.8910523,8.789002 8.5454713,9.4708868 8.2026368,10.138672 7.9448243,10.640137 7.6782227,11.15918 7.463379,11.688477 6.8590089,13.17334 6.1688233,15.128113 6.0295411,16.166932 c 0.4229736,0.28186 0.7179565,0.891845 1.0437012,1.573303 0.3374023,0.706055 0.7197266,1.506348 1.2124023,1.849609 0.9015503,0.627686 1.3689575,1.523011 1.4914551,2.336548 0.3430783,0.03412 0.7755123,0.06384 1.2668453,0.06384 1.21991,0 2.873782,-0.247742 4.097231,-0.990234 0.06867,-1.322755 0.30098,-3.444463 0.988236,-4.188237 z"
           inkscape:connector-curvature="0"
           style="fill:#ffffff" /></g><path
         id="path3353"
         d="m 19.995056,16.164307 c -0.01227,0.820007 -0.109741,1.431396 -0.313904,1.869384 0.02698,0.01056 0.04852,0.03357 0.07367,0.04889 C 19.918396,17.631714 20,17.041199 20,16.25 20,16.21991 19.9953,16.19415 19.9951,16.16431 Z"
         inkscape:connector-curvature="0"
         style="fill:#0099d8" /><path
         id="path3355"
         d="m 9.7770996,21.926392 c 0.3430784,0.03412 0.7755124,0.06384 1.2668454,0.06384 1.21991,0 2.87378,-0.247741 4.097229,-0.990234 l 0,-0.25 c -1.223449,0.742493 -2.877319,0.990234 -4.097229,0.990234 -0.491333,0 -0.999303,-0.03424 -1.3423821,-0.06836"
         inkscape:connector-curvature="0"
         style="opacity:0.1" /><path
         id="path3357"
         d="M 15.743854,22.608398 C 15.650592,22.699219 15.525592,22.75 15.395221,22.75 l -3.39209,0 c -0.888184,0 -2.3608398,0.328125 -2.5830078,0.575684 -0.095703,0.106933 -0.2348634,0.169433 -0.3769532,0.169433 -0.02002,0 -0.040039,-0.0015 -0.060059,-0.0039 -0.1625973,-0.02051 -0.3076168,-0.11524 -0.3837887,-0.26026 L 5.0602598,16.482422 c -0.027039,-0.05164 -0.033264,-0.109863 -0.041077,-0.167175 -0.00378,0.05951 -0.016052,0.130493 -0.016052,0.184753 0,0.08105 0.019531,0.160644 0.057129,0.232422 l 3.5390625,6.748535 c 0.076172,0.14502 0.2211914,0.239746 0.3837891,0.260254 0.02002,0.0024 0.040039,0.0039 0.060059,0.0039 0.1420898,0 0.28125,-0.0625 0.3769531,-0.169433 C 9.6422911,23.328125 11.114947,23 12.003131,23 l 3.39209,0 c 0.130371,0 0.255371,-0.05078 0.348633,-0.141602 l 4.107909,-4 c 0.134338,-0.130676 0.171936,-0.316894 0.127197,-0.485656 -0.02203,0.08612 -0.05872,0.169067 -0.127197,0.235656 l -4.107909,4 z"
         inkscape:connector-curvature="0"
         style="opacity:0.3" /><path
         id="path3359"
         d="m 20.926269,19.074219 c -0.207031,-0.135742 -0.421386,-0.276367 -0.572753,-0.427735 -0.08838,-0.08838 -0.04785,-0.49707 -0.02637,-0.716796 0.0415,-0.421875 0.08447,-0.857422 -0.199218,-1.170411 C 20.020996,16.641113 19.824707,16.5 19.5,16.5 c -0.267578,0 -0.462891,0.211914 -0.474609,0.479004 -3.06e-4,0.0073 0.0027,0.01379 0.0027,0.021 L 17,17 c 0,-0.276367 -0.223633,-0.5 -0.5,-0.5 -1.48291,0 -1.5,5.444824 -1.505859,5.563965 -0.02783,0.29834 -0.09326,0.998047 0.354492,1.489258 C 15.618652,23.849609 16.005859,24 16.5,24 c 1.297852,0 1.927246,-0.668945 2.535644,-1.31543 0.10254,-0.109375 0.20752,-0.220703 0.317872,-0.331054 0.253418,-0.253418 0.749023,-0.434082 1.186523,-0.59375 C 21.257812,21.497559 22,21.226562 22,20.5 22,19.778809 21.404785,19.388184 20.926269,19.074219 Z"
         inkscape:connector-curvature="0"
         style="fill:#fdb515" /><path
         id="path3361"
         d="M 8.2856445,19.589844 C 7.7929687,19.246582 7.4106445,18.446289 7.0732422,17.740234 6.6269531,16.806641 6.2412109,16 5.5,16 4.5644531,16 4.3598633,16.84082 4.2504883,17.29248 4.2202149,17.416992 4.1743164,17.604492 4.1699219,17.626465 4.0957031,17.672363 3.8164063,17.727539 3.631836,17.76416 3.0214844,17.885254 2,18.087402 2,19 2,19.265625 2.039551,19.491211 2.083008,19.726074 2.1601562,20.14209 2.2329102,20.534668 2.0161133,21.375 2.0053711,21.415527 2,21.458008 2,21.5 c 0,1.202148 1.8671875,1.35791 2.9829102,1.450684 0.1855469,0.01563 0.3398438,0.02734 0.4389648,0.04297 0.1538086,0.02441 0.4760742,0.172852 0.7875977,0.316407 C 6.8759766,23.617676 7.7055664,24 8.5,24 9.0712891,24 9.5283203,23.630859 9.7226562,23.012695 10.024902,22.049316 9.6245117,20.521973 8.2856445,19.589844 Z"
         inkscape:connector-curvature="0"
         style="fill:#fdb515" /><path
         id="path3363"
         d="m 3.5531006,18.01416 c 0.190918,-0.03662 0.4799194,-0.0918 0.5567017,-0.137695 0.00452,-0.02197 0.052002,-0.209473 0.083313,-0.333985 C 4.3062744,17.09082 4.5179443,16.25 5.4858398,16.25 c 0.7668457,0 1.1659546,0.806641 1.6276855,1.740234 0.3490601,0.706055 0.7446289,1.506348 1.2543335,1.84961 0.5077515,0.341675 0.8823853,0.764038 1.1412354,1.208557 C 9.2623901,20.513611 8.8675537,19.994934 8.2856445,19.589844 7.7929687,19.246582 7.4106445,18.446289 7.0732422,17.740234 6.6269531,16.806641 6.2412109,16 5.5,16 c -0.9355469,0 -1.1401367,0.84082 -1.2495117,1.29248 -0.030273,0.124512 -0.076172,0.312012 -0.080566,0.333985 -0.074219,0.0459 -0.3535156,0.101074 -0.5380859,0.137695 C 3.1017461,17.869324 2.2634282,18.036926 2.0515752,18.676758 2.3828129,18.240051 3.084351,18.104065 3.553101,18.01416 Z"
         inkscape:connector-curvature="0"
         style="opacity:0.2;fill:#ffffff" /><path
         id="path3365"
         d="m 19.5,15.5 c -0.09583,0 -0.180176,0.03406 -0.256226,0.08069 L 15.905151,10.117493 C 15.540588,9.0874634 15.074219,7.994812 14.444336,6.7709961 14.318359,6.5263672 14.01709,6.4291992 13.770996,6.5551758 13.525879,6.6816406 13.429199,6.9833985 13.555664,7.2290039 15.812988,11.615723 16,14.354004 16.000977,16.972168 c -0.0059,0.10498 -0.0415,1.041504 0.49707,1.611328 C 16.755859,18.855957 17.102051,19 17.5,19 l 0.176269,9.77e-4 c 0.05615,4.88e-4 0.112793,9.76e-4 0.170411,9.76e-4 0.5083,0 1.058105,-0.03857 1.488281,-0.465332 C 19.794922,18.080566 20,17.29834 20,16 20,15.723633 19.776367,15.5 19.5,15.5 Z"
         inkscape:connector-curvature="0"
         style="fill:#1a1a1a" /><path
         id="path3367"
         d="m 19.334961,18.286621 c -0.430176,0.426758 -0.979981,0.465332 -1.488281,0.465332 -0.05762,0 -0.114258,-4.88e-4 -0.170411,-9.77e-4 L 17.5,18.75 c -0.397949,0 -0.744141,-0.144043 -1.001953,-0.416504 -0.403259,-0.426636 -0.484558,-1.058594 -0.497498,-1.393433 0,0.01062 4.27e-4,0.02149 4.27e-4,0.03211 -0.0059,0.10498 -0.0415,1.041504 0.497071,1.611328 C 16.755859,18.855957 17.102051,19 17.5,19 l 0.176269,9.77e-4 c 0.05615,4.88e-4 0.112793,9.76e-4 0.170411,9.76e-4 0.5083,0 1.058105,-0.03857 1.488281,-0.465332 C 19.794922,18.080566 20,17.29834 20,16 c 0,-0.01605 -0.0077,-0.0296 -0.0092,-0.04529 -0.02264,1.166809 -0.222657,1.902405 -0.655884,2.331909 z"
         inkscape:connector-curvature="0"
         style="opacity:0.3" /><path
         id="path3369"
         d="m 13,3.0415039 c -0.57959,0 -1,0.6220703 -1,1.4794922 C 12,5.3779297 12.42041,6 13,6 13.57959,6 14,5.3779297 14,4.5209961 14,3.6635742 13.57959,3.0415039 13,3.0415039 Z"
         inkscape:connector-curvature="0"
         style="fill:#ffffff" /><ellipse
         id="ellipse3371"
         ry="0.88823527"
         rx="0.453567"
         cy="4.8882351"
         cx="13" /><path
         id="path3373"
         d="m 10,3.0415039 c -0.5795898,0 -1,0.6220703 -1,1.4794922 C 9,5.3779297 9.4204102,6 10,6 10.57959,6 11,5.3779297 11,4.5209961 11,3.6635742 10.57959,3.0415039 10,3.0415039 Z"
         inkscape:connector-curvature="0"
         style="fill:#ffffff" /><linearGradient
         y2="13.591293"
         y1="6.8097382"
         x2="17.165054"
         x1="10.383499"
         id="linearGradient3535"
         gradientUnits="userSpaceOnUse"><stop
           id="stop3537"
           style="stop-color:#000000;stop-opacity:0.1"
           offset="0" /><stop
           id="stop3539"
           style="stop-color:#000000;stop-opacity:0"
           offset="1" /></linearGradient><path
         id="path3380"
         d="m 13.80188,7.7424927 c -0.963074,0.6259155 -2.643067,1.116333 -2.848938,1.116333 -0.37854,0 -1.2050172,-0.2702026 -1.812256,-0.8062744 l 6.781555,6.7815557 C 15.761231,12.898071 15.253479,10.69574 13.80188,7.7424927 Z"
         inkscape:connector-curvature="0"
         style="fill:url(#SVGID_1_-3)" /><ellipse
         id="ellipse3382"
         ry="0.87058818"
         rx="0.4445557"
         cy="4.8705883"
         cx="10" /><path
         id="path3384"
         d="M 11.598145,5.0097656 C 11.565918,5.003418 11.532715,5 11.5,5 c -1.075195,0 -3,1.0083008 -3,2 0,0.9370117 1.891113,2 2.5,2 0.29541,0 3.5,-1.112793 3.5,-2 0,-1.3081055 -2.221191,-1.8540039 -2.901855,-1.9902344 z"
         inkscape:connector-curvature="0"
         style="fill:#fdb515" /><path
         id="path3386"
         d="M 11.598145,5.0097656 C 11.565918,5.003418 11.532715,5 11.5,5 c -1.075195,0 -3,1.0083008 -3,2 0,0.9370117 1.891113,2 2.5,2 0.29541,0 3.5,-1.112793 3.5,-2 0,-1.3081055 -2.221191,-1.8540039 -2.901855,-1.9902344 z"
         inkscape:connector-curvature="0"
         style="fill:#fdb515" /><path
         id="path3388"
         d="m 20.540039,21.509766 c -0.4375,0.159668 -0.933105,0.340332 -1.186523,0.59375 -0.110352,0.110351 -0.215332,0.221679 -0.317871,0.331054 C 18.427246,23.081055 17.797852,23.75 16.5,23.75 c -0.494141,0 -0.881348,-0.150391 -1.151367,-0.446777 -0.293152,-0.321595 -0.35907,-0.724671 -0.366821,-1.053833 -0.02161,0.345398 -0.0092,0.891296 0.366821,1.303833 C 15.618652,23.849609 16.005859,24 16.5,24 c 1.297852,0 1.927246,-0.668945 2.535644,-1.31543 0.10254,-0.109375 0.20752,-0.220703 0.317872,-0.331054 0.253418,-0.253418 0.749023,-0.434082 1.186523,-0.59375 C 21.257812,21.497559 22,21.226562 22,20.5 c 0,-0.03626 -0.01727,-0.06244 -0.0202,-0.09705 -0.09998,0.609924 -0.776428,0.864502 -1.439758,1.106812 z"
         inkscape:connector-curvature="0"
         style="opacity:0.1" /><path
         id="path3390"
         d="M 9.7226562,22.762695 C 9.5283203,23.380859 9.0712891,23.75 8.5,23.75 7.7055664,23.75 6.8759766,23.367676 6.2094727,23.060059 5.8979493,22.916504 5.5756836,22.768066 5.421875,22.743652 5.3227539,22.728027 5.168457,22.716309 4.9829102,22.700684 3.9024048,22.61084 2.1324463,22.453125 2.020813,21.351929 c -0.0022,0.0087 -0.00244,0.01434 -0.0047,0.02307 C 2.0053711,21.415527 2,21.458008 2,21.5 c 0,1.202148 1.8671875,1.35791 2.9829102,1.450684 0.1855469,0.01563 0.3398438,0.02734 0.4389648,0.04297 0.1538086,0.02441 0.4760742,0.172852 0.7875977,0.316407 C 6.8759766,23.617676 7.7055664,24 8.5,24 c 0.5712891,0 1.0283203,-0.369141 1.2226562,-0.987305 0.079041,-0.251953 0.1069946,-0.543396 0.085693,-0.851745 -0.00543,0.214111 -0.028686,0.419983 -0.085693,0.601745 z"
         inkscape:connector-curvature="0"
         style="opacity:0.1" /><path
         id="path3392"
         d="M 10.989075,8.75 C 10.428589,8.75 8.8178101,7.8687744 8.5013428,6.9940186 8.5013428,6.9960327 8.5,6.9979858 8.5,7 8.5,7.9370117 10.391113,9 11,9 11.29541,9 14.5,7.887207 14.5,7 14.5,6.980652 14.4895,6.965088 14.48852,6.946045 14.013977,7.8013306 11.264832,8.75 10.989075,8.75 Z"
         inkscape:connector-curvature="0"
         style="opacity:0.1" /><linearGradient
         y2="21.117302"
         y1="17.220039"
         x2="21.758766"
         x1="17.861504"
         id="linearGradient3548"
         gradientUnits="userSpaceOnUse"><stop
           id="stop3550"
           style="stop-color:#000000;stop-opacity:0.1"
           offset="0" /><stop
           id="stop3552"
           style="stop-color:#000000;stop-opacity:0"
           offset="1" /></linearGradient><path
         id="path3399"
         d="m 20.926269,19.074219 c -0.207031,-0.135742 -0.421386,-0.276367 -0.572753,-0.427735 -0.08838,-0.08838 -0.04785,-0.49707 -0.02637,-0.716796 0.0415,-0.421875 0.08447,-0.857422 -0.199218,-1.170411 -0.03626,-0.0401 -0.09412,-0.0777 -0.156739,-0.112976 -0.06287,0.910401 -0.260742,1.518006 -0.63623,1.89032 -0.430176,0.426758 -0.979981,0.465332 -1.488281,0.465332 -0.05762,0 -0.114258,-4.88e-4 -0.170411,-9.77e-4 L 17.5,19 c -0.397949,0 -0.744141,-0.144043 -1.001953,-0.416504 l 3.420776,3.420777 c 0.199646,-0.08936 0.416199,-0.169678 0.621216,-0.244507 C 21.257812,21.497559 22,21.226562 22,20.5 22,19.778809 21.404785,19.388184 20.926269,19.074219 Z"
         inkscape:connector-curvature="0"
         style="fill:url(#SVGID_2_-5)" /><linearGradient
         y2="18.37886"
         y1="10.059656"
         x2="23.085646"
         x1="5.2450533"
         id="linearGradient3555"
         gradientUnits="userSpaceOnUse"><stop
           id="stop3557"
           style="stop-color:#FFFFFF;stop-opacity:0.2"
           offset="0" /><stop
           id="stop3559"
           style="stop-color:#FFFFFF;stop-opacity:0"
           offset="1" /></linearGradient><path
         id="path3406"
         d="m 20.926269,19.074219 c -0.207031,-0.135742 -0.421386,-0.276367 -0.572753,-0.427735 -0.08838,-0.08838 -0.04785,-0.49707 -0.02637,-0.716796 0.0415,-0.421875 0.08447,-0.857422 -0.199218,-1.170411 -0.03418,-0.03772 -0.09473,-0.0741 -0.148377,-0.111145 C 19.992981,16.447571 20,16.232544 20,16 20,12.753418 18.504394,10.880371 17.302734,9.375 16.575195,8.4633789 16,7.7431641 16,7 l 9.77e-4,-0.2329102 c 0.0078,-1.3803711 0.02393,-4.253418 -1.501953,-5.7880859 C 13.853027,0.3295898 13.012207,0 12,0 9.8994141,0 8.5,1.0205078 8.5,6 8.5,7.3706055 7.9233398,8.4931641 7.3129883,9.6816406 7.0454102,10.202637 6.7685547,10.741699 6.5366211,11.311523 6.1178589,12.341187 5.2037964,14.710754 5.0351563,16.095093 4.49469,16.32251 4.338379,16.929626 4.2504883,17.29248 4.2202149,17.416992 4.1743164,17.604492 4.1699219,17.626465 4.0957031,17.672363 3.8164063,17.727539 3.631836,17.76416 3.0214844,17.885254 2,18.087402 2,19 2,19.265625 2.039551,19.491211 2.083008,19.726074 2.1601562,20.14209 2.2329102,20.534668 2.0161133,21.375 2.0053711,21.415527 2,21.458008 2,21.5 c 0,1.202148 1.8671875,1.35791 2.9829102,1.450684 0.1855469,0.01563 0.3398438,0.02734 0.4389648,0.04297 0.1538086,0.02441 0.4760742,0.172852 0.7875977,0.316407 C 6.8759766,23.617676 7.7055664,24 8.5,24 c 0.3419189,0 0.633728,-0.145447 0.8619385,-0.384155 0.017456,-0.01483 0.039673,-0.02295 0.055054,-0.04016 C 9.6391602,23.328125 11.111816,23 12,23 l 3.060669,0 c 0.05511,0.192749 0.134521,0.384888 0.287964,0.553223 C 15.618652,23.849609 16.005859,24 16.5,24 c 1.297852,0 1.927246,-0.668945 2.535644,-1.31543 0.10254,-0.109375 0.20752,-0.220703 0.317872,-0.331054 0.253418,-0.253418 0.749023,-0.434082 1.186523,-0.59375 C 21.257812,21.497559 22,21.226562 22,20.5 22,19.778809 21.404785,19.388184 20.926269,19.074219 Z"
         inkscape:connector-curvature="0"
         style="fill:url(#SVGID_3_-6)" /></g></g></svg>